<svg viewBox="0 0 72 72" xmlns="http://www.w3.org/2000/svg"><path clip-rule="evenodd" d="m20.3995 32.4312c-.2614 1.1476-.3995 2.3421-.3995 3.5688 0 8.8366 7.1634 16 16 16 1.2268 0 2.4213-.1381 3.5688-.3995-3.3356-2.4359-6.8435-5.4377-10.2876-8.8818-3.444-3.444-6.4458-6.9519-8.8817-10.2875zm26.2177 15.5388c-3.3262-.6892-8.5399-4.0802-13.5234-9.0637-4.9836-4.9836-8.3746-10.1973-9.0638-13.5235 2.931-3.302 7.2075-5.3828 11.97-5.3828 8.8366 0 16 7.1634 16 16 0 4.7625-2.0808 9.039-5.3828 11.97z" fill-rule="evenodd"/><circle cx="36" cy="36" fill="#d22f27" r="20" stroke="#d22f27" stroke-width="2"/><path clip-rule="evenodd" d="m58.8803 58.8804c-3.9489 3.9489-17.394-3.0938-30.0305-15.7303s-19.67914-26.0816-15.7302-30.0305c1.848-1.848 5.7757-1.2888 10.727 1.1244 3.4055 1.6598 7.3128 1.9805 11.0961 1.7835.3501-.0183.7026-.0275 1.0573-.0275 11.0457 0 20 8.9543 20 20 0 .3547-.0093.7071-.0275 1.0573-.197 3.7833.1237 7.6906 1.7835 11.0961 2.4132 4.9513 2.9724 8.879 1.1243 10.727z" fill="#d22f27" fill-rule="evenodd"/><path d="m36 51c8.2843 0 15-6.7157 15-15s-6.7157-15-15-15-15 6.7157-15 15 6.7157 15 15 15z"/><path clip-rule="evenodd" d="m18.2033 14.039c-.365-.365-.8587-.5908-1.3723-.5388-.9672.098-1.7562.4249-2.3311.9998-3.7106 3.7107 2.9072 16.3446 14.7813 28.2187 11.8741 11.8742 24.5081 18.4919 28.2187 14.7813.5749-.5749.9018-1.3639.9998-2.3311.052-.5135-.1738-1.0073-.5388-1.3723l-6.6499-6.6499c-.4641-.4641-1.3469-.1108-1.811.3533-2.1574 2.1574-9.5027-1.6902-16.4063-8.5937-6.9035-6.9036-10.7511-14.2489-8.5937-16.4063.4641-.4641.8174-1.3469.3533-1.811z" fill="#d22f27" fill-rule="evenodd"/><path d="m14.7106 14.7106c.2297-.2297.8415-.565 2.3519-.3914 1.4799.17 3.4413.7986 5.7983 1.9474 3.8988 1.9002 8.2474 2.2136 12.199 2.0078.3111-.0162.6246-.0244.9402-.0244 9.803 0 17.75 7.947 17.75 17.75 0 .3156-.0082.6291-.0244.9402-.2059 3.9516.1076 8.3002 2.0078 12.199 1.1488 2.357 1.7774 4.3183 1.9474 5.7982.1735 1.5104-.1617 2.1223-.3914 2.352-.2463.2463-.9359.6094-2.6561.3511-1.6678-.2506-3.8626-1.035-6.4663-2.3988-5.1826-2.7147-11.5231-7.4795-17.7262-13.6826s-10.9678-12.5436-13.6825-17.7261c-1.3639-2.6037-2.1483-4.7985-2.3988-6.4664-.2583-1.7201.1048-2.4097.3511-2.656z" fill="#e27022" stroke="#d22f27" stroke-width=".5"/><path clip-rule="evenodd" d="m33.0937 38.9063c4.1109 4.1108 8.3784 7.1381 11.6138 8.4591 1.1695.4774 2.491.1315 3.3241-.8181 2.4706-2.816 3.9684-6.5067 3.9684-10.5473 0-8.8366-7.1635-16-16-16-4.0406 0-7.7313 1.4978-10.5474 3.9684-.9495.8331-1.2955 2.1546-.818 3.3241 1.321 3.2354 4.3483 7.5029 8.4591 11.6138z" fill-rule="evenodd"/><path d="m28.8498 43.1501-.7071.7071zm30.0305 15.7303-.7071-.7071zm-1.1243-10.727.8989-.4381zm-29.6133-4.2962c6.3694 6.3695 12.9698 11.3581 18.5162 14.2634 2.7677 1.4498 5.325 2.4084 7.4917 2.7338 2.1427.3218 4.1199.05 5.4369-1.2669l-1.4143-1.4142c-.6575.6575-1.8417.9862-3.7255.7033-1.8598-.2793-4.194-1.1308-6.8608-2.5276-5.3224-2.788-11.7629-7.6389-18.03-13.906zm-15.7302-31.4447c-1.317 1.3169-1.5888 3.2942-1.2669 5.4368.3254 2.1668 1.284 4.724 2.7337 7.4917 2.9053 5.5464 7.894 12.1468 14.2634 18.5162l1.4142-1.4142c-6.267-6.2671-11.1179-12.7075-13.9059-18.03-1.3969-2.6668-2.2483-5.001-2.5276-6.8607-.283-1.8838.0457-3.068.7033-3.7256zm11.8722.9326c-2.5284-1.2323-4.863-2.0263-6.8512-2.2547-1.974-.2268-3.7881.0892-5.021 1.3221l1.4142 1.4142c.6151-.6151 1.6888-.9435 3.3785-.7494 1.6754.1925 3.7803.8847 6.2033 2.0656zm11.7153 1.6549c-.372 0-.7419.0097-1.1093.0288l.104 1.9973c.3328-.0173.668-.0261 1.0053-.0261zm21 21c0-11.598-9.402-21-21-21v2c10.4934 0 19 8.5066 19 19zm-.0288 1.1093c.0191-.3675.0288-.7373.0288-1.1093h-2c0 .3373-.0088.6724-.0261 1.0052zm2.6163 22.4782c1.2329-1.2329 1.5488-3.047 1.3221-5.021-.2284-1.9883-1.0224-4.3229-2.2547-6.8512l-1.7978.8762c1.1809 2.423 1.8731 4.5278 2.0655 6.2033.1942 1.6897-.1343 2.7634-.7494 3.3785zm-4.6136-22.5823c-.201 3.8582.1165 7.9616 1.8832 11.5863l1.7978-.8762c-1.553-3.1863-1.8769-6.8975-1.6837-10.606zm-31.5654-21.8623c3.6247 1.7667 7.7281 2.0842 11.5862 1.8832l-.104-1.9973c-3.7086.1932-7.4197-.1308-10.606-1.6837z"/><g fill="none" stroke-linecap="round" stroke-width="2"><path d="m16.2235 33c-.1472.9786-.2235 1.9804-.2235 3 0 11.0457 8.9543 20 20 20 1.194 0 2.3635-.1046 3.5-.3052" stroke="#000"/><path d="m36 52c-8.8366 0-16-7.1634-16-16" stroke="#e27022" stroke-miterlimit="10"/></g></svg>