<svg viewBox="0 0 72 72" xmlns="http://www.w3.org/2000/svg"><path clip-rule="evenodd" d="m20.3995 32.4312c-.2614 1.1476-.3995 2.3421-.3995 3.5688 0 8.8366 7.1634 16 16 16 1.2268 0 2.4213-.1381 3.5688-.3995-3.3356-2.4359-6.8435-5.4377-10.2876-8.8818-3.444-3.444-6.4458-6.9519-8.8817-10.2875zm26.2177 15.5388c-3.3262-.6892-8.5399-4.0802-13.5234-9.0637-4.9836-4.9836-8.3746-10.1973-9.0638-13.5235 2.931-3.302 7.2075-5.3828 11.97-5.3828 8.8366 0 16 7.1634 16 16 0 4.7625-2.0808 9.039-5.3828 11.97z" fill-rule="evenodd"/><path d="m28.8498 43.1501-.7071.7071zm30.0305 15.7303-.7071-.7071zm-1.1243-10.727.8989-.4381zm-29.6133-4.2962c6.3694 6.3695 12.9698 11.3581 18.5162 14.2634 2.7677 1.4498 5.325 2.4084 7.4917 2.7338 2.1427.3218 4.1199.05 5.4369-1.2669l-1.4143-1.4142c-.6575.6575-1.8417.9862-3.7255.7033-1.8598-.2793-4.194-1.1308-6.8608-2.5276-5.3224-2.788-11.7629-7.6389-18.03-13.906zm-15.7302-31.4447c-1.317 1.3169-1.5888 3.2942-1.2669 5.4368.3254 2.1668 1.284 4.724 2.7337 7.4917 2.9053 5.5464 7.894 12.1468 14.2634 18.5162l1.4142-1.4142c-6.267-6.2671-11.1179-12.7075-13.9059-18.03-1.3969-2.6668-2.2483-5.001-2.5276-6.8607-.283-1.8838.0457-3.068.7033-3.7256zm11.8722.9326c-2.5284-1.2323-4.863-2.0263-6.8512-2.2547-1.974-.2268-3.7881.0892-5.021 1.3221l1.4142 1.4142c.6151-.6151 1.6888-.9435 3.3785-.7494 1.6754.1925 3.7803.8847 6.2033 2.0656zm11.7153 1.6549c-.372 0-.7419.0097-1.1093.0288l.104 1.9973c.3328-.0173.668-.0261 1.0053-.0261zm21 21c0-11.598-9.402-21-21-21v2c10.4934 0 19 8.5066 19 19zm-.0288 1.1093c.0191-.3675.0288-.7373.0288-1.1093h-2c0 .3373-.0088.6724-.0261 1.0052zm2.6163 22.4782c1.2329-1.2329 1.5488-3.047 1.3221-5.021-.2284-1.9883-1.0224-4.3229-2.2547-6.8512l-1.7978.8762c1.1809 2.423 1.8731 4.5278 2.0655 6.2033.1942 1.6897-.1343 2.7634-.7494 3.3785zm-4.6136-22.5823c-.201 3.8582.1165 7.9616 1.8832 11.5863l1.7978-.8762c-1.553-3.1863-1.8769-6.8975-1.6837-10.606zm-31.5654-21.8623c3.6247 1.7667 7.7281 2.0842 11.5862 1.8832l-.104-1.9973c-3.7086.1932-7.4197-.1308-10.606-1.6837z"/><path d="m16.2235 33c-.1472.9786-.2235 1.9804-.2235 3 0 11.0457 8.9543 20 20 20 1.194 0 2.3635-.1046 3.5-.3052" fill="none" stroke="#000" stroke-linecap="round" stroke-width="2"/></svg>