<svg enable-background="new 0 0 128 128" viewBox="0 0 128 128" xmlns="http://www.w3.org/2000/svg"><ellipse cx="62.9" cy="66.11" fill="#bf4900" rx="53.6" ry="23.8" transform="matrix(.9557 -.2945 .2945 .9557 -16.6805 21.4556)"/><ellipse cx="62.92" cy="66.11" fill="#c04900" rx="53.6" ry="23.8" transform="matrix(.9557 -.2945 .2945 .9557 -16.6779 21.4595)"/><ellipse cx="62.9" cy="66.01" fill="#c04900" rx="53.6" ry="23.8" transform="matrix(.9557 -.2945 .2945 .9557 -16.6484 21.4505)"/><ellipse cx="62.92" cy="66" fill="#c14a00" rx="53.6" ry="23.8" transform="matrix(.9557 -.2945 .2945 .9557 -16.6457 21.4544)"/><ellipse cx="62.9" cy="65.9" fill="#c24a00" rx="53.6" ry="23.8" transform="matrix(.9557 -.2945 .2945 .9557 -16.6162 21.4454)"/><ellipse cx="62.91" cy="65.89" fill="#c24a00" rx="53.5" ry="23.8" transform="matrix(.9557 -.2945 .2945 .9557 -16.6136 21.4493)"/><ellipse cx="62.8" cy="65.82" fill="#c34a00" rx="53.5" ry="23.8" transform="matrix(.9557 -.2945 .2945 .9557 -16.597 21.4135)"/><ellipse cx="62.82" cy="65.81" fill="#c34b00" rx="53.5" ry="23.8" transform="matrix(.9557 -.2945 .2945 .9557 -16.5943 21.4174)"/><ellipse cx="62.8" cy="65.71" fill="#c44b00" rx="53.5" ry="23.8" transform="matrix(.9557 -.2945 .2945 .9557 -16.5648 21.4083)"/><ellipse cx="62.82" cy="65.7" fill="#c54b00" rx="53.5" ry="23.8" transform="matrix(.9557 -.2945 .2945 .9557 -16.5621 21.4123)"/><ellipse cx="62.8" cy="65.6" fill="#c54b00" rx="53.4" ry="23.7" transform="matrix(.9557 -.2945 .2945 .9557 -16.5326 21.4032)"/><ellipse cx="62.82" cy="65.59" fill="#c64c00" rx="53.4" ry="23.7" transform="matrix(.9557 -.2945 .2945 .9557 -16.53 21.4072)"/><ellipse cx="62.8" cy="65.49" fill="#c74c00" rx="53.4" ry="23.7" transform="matrix(.9557 -.2945 .2945 .9557 -16.5005 21.3982)"/><ellipse cx="62.69" cy="65.42" fill="#c74c00" rx="53.4" ry="23.7" transform="matrix(.9557 -.2945 .2945 .9557 -16.4839 21.3623)"/><ellipse cx="62.7" cy="65.41" fill="#c84c00" rx="53.4" ry="23.7" transform="matrix(.9557 -.2945 .2945 .9557 -16.4812 21.3662)"/><ellipse cx="62.69" cy="65.31" fill="#c94d00" rx="53.4" ry="23.7" transform="matrix(.9557 -.2945 .2945 .9557 -16.4517 21.3572)"/><ellipse cx="62.7" cy="65.3" fill="#c94d00" rx="53.3" ry="23.7" transform="matrix(.9557 -.2945 .2945 .9557 -16.449 21.3611)"/><ellipse cx="62.69" cy="65.2" fill="#ca4d00" rx="53.3" ry="23.7" transform="matrix(.9557 -.2945 .2945 .9557 -16.4195 21.3522)"/><ellipse cx="62.7" cy="65.19" fill="#ca4d00" rx="53.3" ry="23.7" transform="matrix(.9557 -.2945 .2945 .9557 -16.4169 21.3561)"/><ellipse cx="62.59" cy="65.12" fill="#cb4e00" rx="53.3" ry="23.7" transform="matrix(.9557 -.2945 .2945 .9557 -16.4003 21.3202)"/><ellipse cx="62.61" cy="65.11" fill="#cc4e00" rx="53.3" ry="23.7" transform="matrix(.9557 -.2945 .2945 .9557 -16.3976 21.3241)"/><ellipse cx="62.59" cy="65.01" fill="#cc4e00" rx="53.3" ry="23.7" transform="matrix(.9557 -.2945 .2945 .9557 -16.3681 21.3151)"/><ellipse cx="62.61" cy="65" fill="#cd4e00" rx="53.2" ry="23.6" transform="matrix(.9557 -.2945 .2945 .9557 -16.3654 21.319)"/><ellipse cx="62.59" cy="64.9" fill="#ce4f00" rx="53.2" ry="23.6" transform="matrix(.9557 -.2945 .2945 .9557 -16.3359 21.3101)"/><ellipse cx="62.61" cy="64.89" fill="#ce4f00" rx="53.2" ry="23.6" transform="matrix(.9557 -.2945 .2945 .9557 -16.3333 21.314)"/><ellipse cx="62.49" cy="64.82" fill="#cf4f00" rx="53.2" ry="23.6" transform="matrix(.9557 -.2945 .2945 .9557 -16.3167 21.2781)"/><ellipse cx="62.51" cy="64.81" fill="#cf4f00" rx="53.2" ry="23.6" transform="matrix(.9557 -.2945 .2945 .9557 -16.314 21.282)"/><ellipse cx="62.49" cy="64.71" fill="#d05000" rx="53.1" ry="23.6" transform="matrix(.9557 -.2945 .2945 .9557 -16.2845 21.273)"/><ellipse cx="62.51" cy="64.7" fill="#d15000" rx="53.1" ry="23.6" transform="matrix(.9557 -.2945 .2945 .9557 -16.2819 21.2769)"/><ellipse cx="62.49" cy="64.6" fill="#d15000" rx="53.1" ry="23.6" transform="matrix(.9557 -.2945 .2945 .9557 -16.2524 21.268)"/><ellipse cx="62.51" cy="64.59" fill="#d25000" rx="53.1" ry="23.6" transform="matrix(.9557 -.2945 .2945 .9557 -16.2497 21.2719)"/><ellipse cx="62.49" cy="64.49" fill="#d35100" rx="53.1" ry="23.6" transform="matrix(.9557 -.2945 .2945 .9557 -16.2202 21.2629)"/><ellipse cx="62.41" cy="64.51" fill="#d35100" rx="53.1" ry="23.6" transform="matrix(.9557 -.2945 .2945 .9557 -16.2304 21.2399)"/><ellipse cx="62.4" cy="64.41" fill="#d45100" rx="53" ry="23.6" transform="matrix(.9557 -.2945 .2945 .9557 -16.2009 21.2309)"/><ellipse cx="62.41" cy="64.4" fill="#d55100" rx="53" ry="23.6" transform="matrix(.9557 -.2945 .2945 .9557 -16.1983 21.2348)"/><ellipse cx="62.4" cy="64.3" fill="#d55200" rx="53" ry="23.5" transform="matrix(.9557 -.2945 .2945 .9557 -16.1688 21.2258)"/><ellipse cx="62.41" cy="64.29" fill="#d65200" rx="53" ry="23.5" transform="matrix(.9557 -.2945 .2945 .9557 -16.1661 21.2298)"/><ellipse cx="62.39" cy="64.19" fill="#d65200" rx="53" ry="23.5" transform="matrix(.9557 -.2945 .2945 .9557 -16.1366 21.2207)"/><ellipse cx="62.31" cy="64.21" fill="#d75200" rx="53" ry="23.5" transform="matrix(.9557 -.2945 .2945 .9557 -16.1468 21.1978)"/><ellipse cx="62.3" cy="64.11" fill="#d85300" rx="52.9" ry="23.5" transform="matrix(.9557 -.2945 .2945 .9557 -16.1173 21.1888)"/><ellipse cx="62.31" cy="64.1" fill="#d85300" rx="52.9" ry="23.5" transform="matrix(.9557 -.2945 .2945 .9557 -16.1147 21.1927)"/><ellipse cx="62.3" cy="64" fill="#d95300" rx="52.9" ry="23.5" transform="matrix(.9557 -.2945 .2945 .9557 -16.0852 21.1837)"/><ellipse cx="62.31" cy="64" fill="#da5300" rx="52.9" ry="23.5" transform="matrix(.9557 -.2945 .2945 .9557 -16.0825 21.1876)"/><ellipse cx="62.3" cy="63.89" fill="#da5400" rx="52.9" ry="23.5" transform="matrix(.9557 -.2945 .2945 .9557 -16.053 21.1786)"/><ellipse cx="62.21" cy="63.92" fill="#db5400" rx="52.8" ry="23.5" transform="matrix(.9557 -.2945 .2945 .9557 -16.0633 21.1557)"/><ellipse cx="62.2" cy="63.81" fill="#dc5400" rx="52.8" ry="23.5" transform="matrix(.9557 -.2945 .2945 .9557 -16.0338 21.1467)"/><ellipse cx="62.21" cy="63.81" fill="#dc5400" rx="52.8" ry="23.5" transform="matrix(.9557 -.2945 .2945 .9557 -16.0311 21.1506)"/><ellipse cx="62.2" cy="63.7" fill="#d50" rx="52.8" ry="23.5" transform="matrix(.9557 -.2945 .2945 .9557 -16.0016 21.1416)"/><ellipse cx="62.21" cy="63.7" fill="#d50" rx="52.8" ry="23.4" transform="matrix(.9557 -.2945 .2945 .9557 -15.9989 21.1455)"/><ellipse cx="62.2" cy="63.59" fill="#de5500" rx="52.8" ry="23.4" transform="matrix(.9557 -.2945 .2945 .9557 -15.9694 21.1365)"/><ellipse cx="62.21" cy="63.59" fill="#df5500" rx="52.7" ry="23.4" transform="matrix(.9557 -.2945 .2945 .9557 -15.9667 21.1404)"/><ellipse cx="62.1" cy="63.51" fill="#df5600" rx="52.7" ry="23.4" transform="matrix(.9557 -.2945 .2945 .9557 -15.9501 21.1046)"/><ellipse cx="62.12" cy="63.51" fill="#e05600" rx="52.7" ry="23.4" transform="matrix(.9557 -.2945 .2945 .9557 -15.9475 21.1085)"/><ellipse cx="62.1" cy="63.4" fill="#e15600" rx="52.7" ry="23.4" transform="matrix(.9557 -.2945 .2945 .9557 -15.918 21.0995)"/><ellipse cx="62.12" cy="63.4" fill="#e15600" rx="52.7" ry="23.4" transform="matrix(.9557 -.2945 .2945 .9557 -15.9153 21.1034)"/><ellipse cx="62.1" cy="63.3" fill="#e25700" rx="52.7" ry="23.4" transform="matrix(.9557 -.2945 .2945 .9557 -15.8858 21.0944)"/><ellipse cx="62.11" cy="63.29" fill="#e25700" rx="52.6" ry="23.4" transform="matrix(.9557 -.2945 .2945 .9557 -15.8832 21.0983)"/><ellipse cx="62" cy="63.22" fill="#e35700" rx="52.6" ry="23.4" transform="matrix(.9557 -.2945 .2945 .9557 -15.8666 21.0625)"/><ellipse cx="62.02" cy="63.21" fill="#e45700" rx="52.6" ry="23.4" transform="matrix(.9557 -.2945 .2945 .9557 -15.8639 21.0664)"/><ellipse cx="62" cy="63.11" fill="#e45800" rx="52.6" ry="23.4" transform="matrix(.9557 -.2945 .2945 .9557 -15.8344 21.0574)"/><ellipse cx="62.02" cy="63.1" fill="#e55800" rx="52.6" ry="23.4" transform="matrix(.9557 -.2945 .2945 .9557 -15.8317 21.0613)"/><ellipse cx="62" cy="63" fill="#e65800" rx="52.5" ry="23.3" transform="matrix(.9557 -.2945 .2945 .9557 -15.8022 21.0523)"/><ellipse cx="62.02" cy="62.99" fill="#e65800" rx="52.5" ry="23.3" transform="matrix(.9557 -.2945 .2945 .9557 -15.7996 21.0562)"/><ellipse cx="62" cy="62.89" fill="#e75900" rx="52.5" ry="23.3" transform="matrix(.9557 -.2945 .2945 .9557 -15.7701 21.0472)"/><ellipse cx="61.89" cy="62.81" fill="#e85900" rx="52.5" ry="23.3" transform="matrix(.9557 -.2945 .2945 .9557 -15.7535 21.0114)"/><ellipse cx="61.9" cy="62.81" fill="#e85900" rx="52.5" ry="23.3" transform="matrix(.9557 -.2945 .2945 .9557 -15.7508 21.0153)"/><ellipse cx="61.89" cy="62.71" fill="#e95900" rx="52.5" ry="23.3" transform="matrix(.9557 -.2945 .2945 .9557 -15.7213 21.0063)"/><ellipse cx="61.9" cy="62.7" fill="#e95a00" rx="52.4" ry="23.3" transform="matrix(.9557 -.2945 .2945 .9557 -15.7186 21.0102)"/><ellipse cx="61.89" cy="62.6" fill="#ea5a00" rx="52.4" ry="23.3" transform="matrix(.9557 -.2945 .2945 .9557 -15.6891 21.0012)"/><ellipse cx="61.9" cy="62.59" fill="#eb5a00" rx="52.4" ry="23.3" transform="matrix(.9557 -.2945 .2945 .9557 -15.6865 21.0051)"/><ellipse cx="61.79" cy="62.52" fill="#eb5a00" rx="52.4" ry="23.3" transform="matrix(.9557 -.2945 .2945 .9557 -15.6699 20.9693)"/><ellipse cx="61.81" cy="62.51" fill="#ec5b00" rx="52.4" ry="23.3" transform="matrix(.9557 -.2945 .2945 .9557 -15.6672 20.9732)"/><ellipse cx="61.79" cy="62.41" fill="#ed5b00" rx="52.4" ry="23.3" transform="matrix(.9557 -.2945 .2945 .9557 -15.6377 20.9642)"/><ellipse cx="61.81" cy="62.4" fill="#ed5b00" rx="52.3" ry="23.3" transform="matrix(.9557 -.2945 .2945 .9557 -15.635 20.9681)"/><ellipse cx="61.79" cy="62.3" fill="#ee5b00" rx="52.3" ry="23.2" transform="matrix(.9557 -.2945 .2945 .9557 -15.6055 20.9591)"/><ellipse cx="61.81" cy="62.29" fill="#ef5c00" rx="52.3" ry="23.2" transform="matrix(.9557 -.2945 .2945 .9557 -15.6029 20.963)"/><ellipse cx="61.69" cy="62.22" fill="#ef5c00" rx="52.3" ry="23.2" transform="matrix(.9557 -.2945 .2945 .9557 -15.5863 20.9272)"/><ellipse cx="61.71" cy="62.21" fill="#f05c00" rx="52.3" ry="23.2" transform="matrix(.9557 -.2945 .2945 .9557 -15.5836 20.9311)"/><ellipse cx="61.69" cy="62.11" fill="#f05c00" rx="52.2" ry="23.2" transform="matrix(.9557 -.2945 .2945 .9557 -15.5541 20.9221)"/><ellipse cx="61.71" cy="62.1" fill="#f15d00" rx="52.2" ry="23.2" transform="matrix(.9557 -.2945 .2945 .9557 -15.5515 20.926)"/><ellipse cx="61.69" cy="62" fill="#f25d00" rx="52.2" ry="23.2" transform="matrix(.9557 -.2945 .2945 .9557 -15.522 20.917)"/><ellipse cx="61.71" cy="61.99" fill="#f25d00" rx="52.2" ry="23.2" transform="matrix(.9557 -.2945 .2945 .9557 -15.5193 20.9209)"/><ellipse cx="61.69" cy="61.89" fill="#f35d00" rx="52.2" ry="23.2" transform="matrix(.9557 -.2945 .2945 .9557 -15.4898 20.9119)"/><ellipse cx="61.61" cy="61.91" fill="#f45e00" rx="52.2" ry="23.2" transform="matrix(.9557 -.2945 .2945 .9557 -15.5 20.889)"/><ellipse cx="61.6" cy="61.81" fill="#f45e00" rx="52.1" ry="23.2" transform="matrix(.9557 -.2945 .2945 .9557 -15.4705 20.88)"/><ellipse cx="61.61" cy="61.8" fill="#f55e00" rx="52.1" ry="23.2" transform="matrix(.9557 -.2945 .2945 .9557 -15.4679 20.8839)"/><ellipse cx="61.59" cy="61.7" fill="#f55e00" rx="52.1" ry="23.1" transform="matrix(.9557 -.2945 .2945 .9557 -15.4384 20.8749)"/><ellipse cx="61.61" cy="61.69" fill="#f65f00" rx="52.1" ry="23.1" transform="matrix(.9557 -.2945 .2945 .9557 -15.4357 20.8788)"/><ellipse cx="61.59" cy="61.59" fill="#f75f00" rx="52.1" ry="23.1" transform="matrix(.9557 -.2945 .2945 .9557 -15.4062 20.8698)"/><ellipse cx="61.51" cy="61.61" fill="#f75f00" rx="52.1" ry="23.1" transform="matrix(.9557 -.2945 .2945 .9557 -15.4165 20.8469)"/><ellipse cx="61.5" cy="61.51" fill="#f85f00" rx="52" ry="23.1" transform="matrix(.9557 -.2945 .2945 .9557 -15.387 20.8379)"/><ellipse cx="61.51" cy="61.5" fill="#f96000" rx="52" ry="23.1" transform="matrix(.9557 -.2945 .2945 .9557 -15.3843 20.8418)"/><ellipse cx="61.5" cy="61.4" fill="#f96000" rx="52" ry="23.1" transform="matrix(.9557 -.2945 .2945 .9557 -15.3548 20.8328)"/><ellipse cx="61.51" cy="61.39" fill="#fa6000" rx="52" ry="23.1" transform="matrix(.9557 -.2945 .2945 .9557 -15.3521 20.8367)"/><ellipse cx="61.5" cy="61.29" fill="#fb6000" rx="52" ry="23.1" transform="matrix(.9557 -.2945 .2945 .9557 -15.3226 20.8277)"/><ellipse cx="61.41" cy="61.31" fill="#fb6100" rx="51.9" ry="23.1" transform="matrix(.9557 -.2945 .2945 .9557 -15.3329 20.8048)"/><ellipse cx="61.4" cy="61.21" fill="#fc6100" rx="51.9" ry="23.1" transform="matrix(.9557 -.2945 .2945 .9557 -15.3034 20.7958)"/><ellipse cx="61.41" cy="61.21" fill="#fc6100" rx="51.9" ry="23.1" transform="matrix(.9557 -.2945 .2945 .9557 -15.3007 20.7997)"/><ellipse cx="61.4" cy="61.1" fill="#fd6100" rx="51.9" ry="23.1" transform="matrix(.9557 -.2945 .2945 .9557 -15.2712 20.7907)"/><ellipse cx="61.41" cy="61.1" fill="#fe6200" rx="51.9" ry="23" transform="matrix(.9557 -.2945 .2945 .9557 -15.2685 20.7946)"/><ellipse cx="61.4" cy="60.99" fill="#fe6200" rx="51.9" ry="23" transform="matrix(.9557 -.2945 .2945 .9557 -15.239 20.7856)"/><ellipse cx="61.41" cy="60.99" fill="#ff6200" rx="51.8" ry="23" transform="matrix(.9557 -.2945 .2945 .9557 -15.2364 20.7895)"/><path d="m84.2 37.4c5.5 0 10.3.7 14.5 2.1 3.3 1.1 5.6 2.4 7.1 4 2 2.2 4.4 5 5.3 7.9.2.7.3 1.4.4 2 0 1.8-.5 3.7-1.5 5.8-3.3 6.5-9.8 11.3-14.4 14.4-7.5 5-16.5 9.1-26.6 12.2-4.5 1.4-9.1 2.5-13.5 3.3-5.9 1-11.1 1.6-16 1.6-4.4 0-8.5-.4-12.3-1.3-8.1-1.9-12.5-5.5-12.9-10.9-.3-3.9 0-7.2 1-9.6 2.6-6.4 9-11.3 13.5-14.4 7.4-5.1 16.4-9.3 26.6-12.4 5.6-1.7 11.3-3 16.8-3.8 4.4-.6 8.3-.9 12-.9m0-3.2c-4.2 0-8.4.4-12.5 1-5.8.8-11.6 2.1-17.2 3.9-9.7 3-19.1 7.1-27.5 12.8-5.8 4-11.9 9.1-14.7 15.8-1.4 3.4-1.5 7.4-1.2 11 .7 8.3 8 12 15.4 13.7 4.2 1 8.6 1.4 13 1.4 5.5 0 11.1-.6 16.5-1.6 4.7-.8 9.3-2 13.9-3.4 9.6-2.9 19-7 27.4-12.6 6-4 12.2-9.1 15.5-15.6 1.1-2.2 1.9-4.7 1.8-7.2 0-1-.2-2-.5-2.9-1.1-3.4-3.7-6.6-5.9-9s-5.4-3.9-8.4-4.9c-5-1.7-10.3-2.4-15.6-2.4z" fill="#424242" opacity=".2"/><ellipse cx="61.19" cy="58.7" fill="#e05600" rx="37.7" ry="15.3" transform="matrix(.9557 -.2945 .2945 .9557 -14.5725 20.6227)"/><ellipse cx="59.51" cy="59.11" fill="#ff7017" rx="30.9" ry="11.9" transform="matrix(.9557 -.2945 .2945 .9557 -14.7695 20.1454)"/><path d="m22.5 78.9c1 .9 2 1.4 3.2 1.9 1.1.4 2.3.7 3.5 1 2.4.5 4.8.8 7.3 1s4.9.3 7.4.3c2.5.1 5.1-.1 7.7.1-2.4 1-4.9 1.8-7.5 2.3s-5.2.6-7.9.4c-2.6-.2-5.3-.6-7.8-1.6-1.3-.5-2.5-1.2-3.5-2-.5-.4-1-.9-1.5-1.5-.4-.6-.7-1.2-.9-1.9z" fill="#ffba8f"/><path d="m89.2 14.8c4.8.3 9.5 1.2 14.1 2.8s9 3.9 12.8 7.2c1.8 1.7 3.5 3.6 4.8 5.7 1.3 2.2 2.3 4.5 2.9 6.9s.7 4.9.5 7.4c-.2 2.4-.8 4.8-1.6 7.1.1-2.4.3-4.8.1-7.1s-.6-4.6-1.3-6.7c-1.4-4.3-4.1-8.1-7.5-11-1.7-1.5-3.6-2.8-5.5-4-1.9-1.3-4.1-2.2-6.1-3.2-4.1-2.1-8.6-3.6-13.2-5.1z" fill="#90a4ae"/><path d="m4.8 41.2c-1 .3-1.2-.9-.5-1.4 1-.7 2.5-1.1 3.6-1.6 2.5-1.1 4.9-2.1 7.4-3 4.9-1.9 9.9-3.8 14.8-5.5 6.6-2.3 13.4-4.4 20.2-5.8 11.3-2.4 22.9-3.8 34.5-2.6 6.1.6 21.1 2.3 30.1 13.8 4.2 5.3 4.9 13 3.6 19.4-.2-5.2-1-9.7-3.2-14.2-6.6-13-28.6-15.5-38.3-15.5-8.9 0-17.8 1.2-26.5 2.9-5.8 1.1-11.7 2.5-17.4 4.2-9.6 2.8-18.9 6.2-28.3 9.3z" fill="#b0bec5"/><path d="m65.4 104.3c.8-.1 1 1 .3 1.3-8.1 2.6-17.1 3.1-25.4 2.2-9-.9-18.2-4-25.1-10-2.9-2.5-5.6-5.9-7-9.6-.3-.7.7-1.2 1.1-.6 1.8 2.7 4.2 4.9 6.7 6.8 3.9 2.9 8.4 5.1 12.9 6.7 8.3 3 17.1 4 25.9 3.9 3.5.1 7.1-.2 10.6-.7z" fill="#b0bec5"/><path d="m55.7 114.5c-1.6.6-3.2 1.1-4.8 1.5-1.7.3-3.3.7-5 .8-1.7.2-3.4.3-5.1.2-.8-.1-1.7 0-2.5-.2l-2.5-.4c-3.4-.7-6.7-1.7-9.6-3.4-3-1.7-5.8-3.8-7.6-6.7 2.7 1.9 5.6 3.3 8.6 4.5s6.1 2 9.2 2.6c1.6.2 3.1.5 4.8.6.8.1 1.6.2 2.4.2s1.6.1 2.4.1c.8.1 1.6 0 2.4 0h2.5c1.4.3 3.1.2 4.8.2z" fill="#90a4ae"/></svg>